:SAMPLES-PER-SECOND 30
:FULLY-SPECIFIED
:DEGREES
391
root  23.0219 38.8217 -16.6413 178.738 -78.5931 175.529
RightUpLeg  -12.3632 7.12918 -5.79982
RightLeg  51.4992 -0.660527 -1.24369
RightFoot  -2.05523 -0.686086 8.25608
RightToes  5.23868e-010 0 -3.6325e-017
Spine  8.61179 -1.02156 -1.89286
Spine1  9.62493 -1.4716 -2.01113
HEad  -21.7609 17.8128 -7.21792
LeftShoulder1  -0.146684 3.89042 -31.8228
LeftArm  -2.80268 12.1147 -40.5993
LeftForeArm  26.9945 -11.7735 -7.38993
LeftHand  -0.02426 5.25464 -1.91764
RightShoulder  -0.675622 -5.47385 27.6118
RightArm  16.866 -1.99345 48.9451
RightForeArm  -1.4243 18.2463 5.32605
RightHand  -0.632594 3.31427 -8.66842
LeftUpLeg  -4.35095 3.95279 -8.25863
LeftLeg  14.7397 4.41809 -0.0792941
LeftFoot  -5.18446 -0.74795 14.4075
LeftToes  -4.9204e-010 1.02043e-011 -1.81609e-011
392
root  22.2932 38.8642 -16.783 178.971 -80.8588 175.503
RightUpLeg  -14.5871 11.0456 -6.14684
RightLeg  46.1715 -1.55275 -2.06142
RightFoot  -2.63842 -0.569514 7.24979
RightToes  5.23868e-010 0 -3.6325e-017
Spine  8.65841 -1.24269 -1.50758
Spine1  9.33381 -1.5472 -2.06231
HEad  -21.1345 16.4687 -6.53322
LeftShoulder1  -0.135656 3.86073 -31.8605
LeftArm  -2.34692 11.6473 -40.6647
LeftForeArm  26.2877 -12.7431 -7.07106
LeftHand  -0.013688 4.51955 -1.75513
RightShoulder  -0.658584 -5.44141 27.2978
RightArm  17.1175 -1.7027 49.087
RightForeArm  -0.86969 20.4312 4.94082
RightHand  -0.578007 2.95792 -8.26037
LeftUpLeg  -3.02671 3.88958 -8.29197
LeftLeg  14.44 2.39518 -0.337836
LeftFoot  -6.16303 -0.627053 14.6096
LeftToes  -4.9204e-010 1.02043e-011 -1.81609e-011
393
root  21.523 38.8843 -16.9222 179.549 -83.3106 175.009
RightUpLeg  -15.886 14.2045 -6.821
RightLeg  39.0068 -1.16292 -1.2903
RightFoot  -2.338 -0.559654 6.89671
RightToes  5.23868e-010 0 -3.6325e-017
Spine  8.53576 -1.46965 -1.14004
Spine1  9.29404 -1.6359 -2.08773
HEad  -20.7207 15.0061 -6.12301
LeftShoulder1  -0.115051 3.81018 -31.4222
LeftArm  -1.23751 11.4187 -41.3512
LeftForeArm  24.7039 -14.4263 -6.53426
LeftHand  -0.0174469 4.59769 -1.10576
RightShoulder  -0.648718 -5.39633 27.5743
RightArm  17.3517 -1.11221 48.5562
RightForeArm  -0.530932 22.001 4.88517
RightHand  -0.582389 2.85267 -8.42988
LeftUpLeg  -1.58534 4.06106 -8.19672
LeftLeg  14.3045 0.031351 -0.729442
LeftFoot  -7.20788 -0.504475 15.1026
LeftToes  -4.9204e-010 1.02043e-011 -1.81609e-011
394
root  20.7223 38.8743 -17.0499 -177.094 -85.9421 171.654
RightUpLeg  -16.4359 15.8276 -7.75503
RightLeg  30.7499 0.15325 -0.143978
RightFoot  -2.30891 -0.601061 7.39826
RightToes  5.23868e-010 0 -3.6325e-017
Spine  8.93287 -1.6443 -1.03066
Spine1  8.55451 -1.80814 -1.74694
HEad  -19.5347 11.2761 -5.08948
LeftShoulder1  -0.154779 3.91197 -31.8087
LeftArm  1.44214 10.958 -41.3617
LeftForeArm  21.8286 -16.278 -6.12407
LeftHand  -0.0274936 4.68002 0.0382321
RightShoulder  -0.628427 -5.34813 27.3605
RightArm  16.8542 -1.03096 48.0479
RightForeArm  -0.0709402 22.9905 4.9468
RightHand  -0.612359 3.70571 -8.06024
LeftUpLeg  -0.0270267 4.30776 -8.13389
LeftLeg  14.2772 -2.55156 -1.2473
LeftFoot  -8.34897 -0.357263 15.4837
LeftToes  -4.9204e-010 1.02043e-011 -1.81609e-011
395
root  19.8947 38.8975 -17.1419 -163.186 -88.1006 158.097
RightUpLeg  -16.857 15.366 -8.27588
RightLeg  21.906 1.81662 0.666727
RightFoot  -1.43012 -0.675751 7.69608
RightToes  5.23868e-010 0 -3.6325e-017
Spine  8.44083 -1.67266 -0.451067
Spine1  8.69719 -1.74844 -1.42122
HEad  -15.815 2.07188 -1.77391
LeftShoulder1  -0.154309 3.90839 -32.022
LeftArm  3.4322 10.355 -41.6117
LeftForeArm  19.5453 -17.8865 -5.58438
LeftHand  -0.0332762 3.44403 0.968171
RightShoulder  -0.625865 -5.35289 27.1245
RightArm  16.6336 -0.68538 47.7298
RightForeArm  0.323687 23.3554 4.98548
RightHand  -0.622804 3.52576 -8.34982
LeftUpLeg  1.4298 4.61449 -7.72933
LeftLeg  13.7156 -5.17869 -1.93886
LeftFoot  -9.3842 -0.207049 15.3603
LeftToes  -4.9204e-010 1.02043e-011 -1.81609e-011
396
root  19.037 38.9343 -17.1986 -153.099 -89.6954 148.207
RightUpLeg  -16.6314 10.0109 -7.18522
RightLeg  13.3662 4.44515 0.445362
RightFoot  1.23692 -0.896509 8.14366
RightToes  5.23868e-010 0 -3.6325e-017
Spine  8.21721 -1.65971 0.500314
Spine1  8.62373 -1.53319 -1.54555
HEad  -16.3028 1.39261 -2.13107
LeftShoulder1  -0.150218 3.89801 -31.9551
LeftArm  5.42574 10.3217 -41.9213
LeftForeArm  17.4568 -19.836 -4.87611
LeftHand  -0.0383326 3.10576 1.12465
RightShoulder  -0.580534 -5.23421 26.7999
RightArm  17.2358 -0.223439 47.6847
RightForeArm  -0.695366 22.5077 4.92915
RightHand  -0.651444 3.95204 -8.3538
LeftUpLeg  3.31529 4.77021 -7.46303
LeftLeg  12.617 -6.87016 -2.19743
LeftFoot  -10.0726 -0.110545 15.352
LeftToes  -4.9204e-010 1.02043e-011 -1.81609e-011
